<svg width="104" height="104" viewBox="0 0 104 104" fill="none" xmlns="http://www.w3.org/2000/svg">
<g id="Group 48095701" filter="url(#filter0_d_1_152)">
<path id="Subtract" fill-rule="evenodd" clip-rule="evenodd" d="M42.2968 77.9693C42.4896 78.3091 42.7913 78.5758 43.1544 78.7273C43.3744 78.8157 43.6089 78.8633 43.8463 78.8676C44.1249 78.8569 44.3969 78.7814 44.6404 78.6473C44.884 78.5133 45.0921 78.3244 45.248 78.0959L68.3132 48.2809C68.4996 48.0316 68.6159 47.7381 68.6502 47.43C68.6845 47.1219 68.6356 46.8103 68.5084 46.527C68.3621 46.2319 68.1348 45.9833 67.8525 45.8096C67.5701 45.636 67.2441 45.5442 66.9116 45.5449H58.4839L69.6721 6.44551C86.3069 13.3834 98.0013 29.8178 98.0013 48.9617C98.0013 74.3669 77.4063 95.0003 52.0011 95.0003C26.596 95.0003 6.00098 74.3669 6.00098 48.9617C6.00098 24.456 25.1634 4.39017 49.3215 3L34.9751 53.9106C34.9125 54.1721 34.9115 54.4442 34.9721 54.7061C35.0328 54.968 35.1535 55.2126 35.3249 55.421C35.4964 55.6295 35.714 55.7962 35.961 55.9084C36.2079 56.0205 36.4777 56.0751 36.7493 56.0679H45.319L42.0898 76.8507C42.0312 77.236 42.104 77.6295 42.2968 77.9693Z" fill="url(#paint0_linear_1_152)"/>
</g>
<defs>
<filter id="filter0_d_1_152" x="0.000976562" y="0" width="104" height="104" filterUnits="userSpaceOnUse" color-interpolation-filters="sRGB">
<feFlood flood-opacity="0" result="BackgroundImageFix"/>
<feColorMatrix in="SourceAlpha" type="matrix" values="0 0 0 0 0 0 0 0 0 0 0 0 0 0 0 0 0 0 127 0" result="hardAlpha"/>
<feOffset dy="3"/>
<feGaussianBlur stdDeviation="3"/>
<feComposite in2="hardAlpha" operator="out"/>
<feColorMatrix type="matrix" values="0 0 0 0 0.513726 0 0 0 0 0.917647 0 0 0 0 0 0 0 0 0.3 0"/>
<feBlend mode="normal" in2="BackgroundImageFix" result="effect1_dropShadow_1_152"/>
<feBlend mode="normal" in="SourceGraphic" in2="effect1_dropShadow_1_152" result="shape"/>
</filter>
<linearGradient id="paint0_linear_1_152" x1="52.0011" y1="3" x2="52.0011" y2="95.0004" gradientUnits="userSpaceOnUse">
<stop stop-color="#6CC100"/>
<stop offset="1" stop-color="#83EA00"/>
</linearGradient>
</defs>
</svg>
