<?xml version="1.0" encoding="UTF-8"?>
<svg version="1.1" xmlns="http://www.w3.org/2000/svg" width="50" height="50">
<path d="M0 0 C1.5187861 -0.00435406 3.03757001 -0.00953951 4.55635071 -0.01548767 C8.6598234 -0.02881558 12.76320363 -0.0294632 16.86669374 -0.02692437 C20.30323064 -0.02585024 23.73974917 -0.0307494 27.17628211 -0.03552979 C35.2903871 -0.04660393 43.4044458 -0.04707446 51.51855469 -0.04101562 C59.86360453 -0.03497971 68.20848561 -0.04728193 76.55350667 -0.06858569 C83.74108822 -0.08625375 90.92861631 -0.0921948 98.11621875 -0.08894795 C102.39890969 -0.08714292 106.68148028 -0.08969257 110.96415138 -0.10366249 C114.99522644 -0.11632096 119.02604027 -0.11422175 123.05711174 -0.1012516 C124.52756975 -0.09890345 125.99804661 -0.10155648 127.46848297 -0.10987473 C145.03118195 -0.20198016 158.45046975 3.51955336 171.16088867 15.8996582 C184.60880086 29.59610553 187.32671834 45.61013123 187.23657227 64.31958008 C187.24065047 65.76689547 187.24599927 67.21420775 187.25250244 68.66151428 C187.26603368 72.54794448 187.26093699 76.43413243 187.25136518 80.32056618 C187.24369409 84.41525482 187.25083464 88.50992468 187.25552368 92.60461426 C187.26095978 99.47692534 187.25384634 106.34913926 187.23950195 113.22143555 C187.22317958 121.13201483 187.22846961 129.04236203 187.24498117 136.9529357 C187.25865759 143.78227501 187.26048581 150.61154504 187.25266516 157.44089365 C187.24802227 161.5033539 187.24726931 165.56570558 187.25727463 169.62815857 C187.26603236 173.45002884 187.25976449 177.27160405 187.24259186 181.09344292 C187.23867346 182.4840439 187.23967969 183.87467034 187.24637985 185.2652607 C187.32447292 203.14089614 184.01461078 218.51257156 171.34838867 231.5871582 C158.18149461 244.55029564 143.77495194 247.58370725 125.69677734 247.54931641 C124.17799124 247.55367047 122.65920733 247.55885592 121.14042664 247.56480408 C117.03695394 247.57813199 112.93357371 247.57877961 108.83008361 247.57624078 C105.39354671 247.57516665 101.95702818 247.5800658 98.52049524 247.5848462 C90.40639024 247.59592034 82.29233154 247.59639087 74.17822266 247.59033203 C65.83317281 247.58429612 57.48829173 247.59659834 49.14327067 247.6179021 C41.95568912 247.63557016 34.76816104 247.6415112 27.5805586 247.63826436 C23.29786765 247.63645933 19.01529706 247.63900898 14.73262596 247.6529789 C10.7015509 247.66563737 6.67073707 247.66353815 2.6396656 247.65056801 C1.16920759 247.64821986 -0.30126927 247.65087289 -1.77170563 247.65919113 C-19.33615272 247.75130573 -32.75148457 244.02857643 -45.46411133 231.6496582 C-58.51699454 218.38700588 -61.61958283 203.2713363 -61.55566406 185.10546875 C-61.56138078 183.62066132 -61.56835002 182.13585828 -61.57646179 180.65106201 C-61.59426718 176.65289464 -61.59324855 172.65494826 -61.58751941 168.6567533 C-61.58440838 165.30235619 -61.59054129 161.94800036 -61.59655815 158.59360915 C-61.61056109 150.6706062 -61.60907821 142.74771116 -61.59765625 134.82470703 C-61.58618608 126.68920134 -61.60024178 118.55402575 -61.62705272 110.41856354 C-61.64930796 103.39901356 -61.65582491 96.37956645 -61.64997631 89.35998374 C-61.64662807 85.18284271 -61.64887777 81.005913 -61.66622734 76.82880211 C-61.68185163 72.89609215 -61.67757239 68.96386563 -61.6589222 65.03117371 C-61.65527828 63.60067643 -61.65821964 62.17014207 -61.66880798 60.73967934 C-61.79335518 42.49900298 -57.31640744 28.26953447 -44.58911133 15.0246582 C-31.8499431 2.31933024 -17.46862325 -0.03323127 0 0 Z " fill="#015EFE" transform="translate(79.151611328125,16.725341796875)"/>
<path d="M0 0 C3.77264411 2.1648394 6.65399549 4.92411709 9.328125 8.3359375 C10.102771 9.29222046 10.102771 9.29222046 10.89306641 10.26782227 C13.05087792 14.88116307 12.77610726 19.27053484 12.76171875 24.3046875 C12.7669606 25.37658325 12.77220245 26.448479 12.77760315 27.55285645 C12.78402174 29.82233822 12.78268849 32.09185326 12.77416992 34.36132812 C12.76572274 37.79619494 12.79432338 41.22936255 12.82617188 44.6640625 C12.884622 62.75705615 10.95581257 77.46430187 -1.984375 91.1484375 C-12.5434977 101.16109475 -25.33578034 105.03785433 -39.671875 104.8359375 C-40.77015625 104.85140625 -41.8684375 104.866875 -43 104.8828125 C-56.05165222 104.82095633 -67.12085791 99.99781901 -76.89453125 91.375 C-86.38178722 81.54042638 -90.87343521 69.8404714 -90.671875 56.3359375 C-86.711875 56.3359375 -82.751875 56.3359375 -78.671875 56.3359375 C-78.44113281 57.25375 -78.21039063 58.1715625 -77.97265625 59.1171875 C-74.61270352 71.76017168 -70.12505627 80.1723757 -58.734375 87.22265625 C-48.94706155 92.50558112 -35.42255548 91.85112029 -24.7734375 89.4609375 C-15.20332321 85.72145839 -8.93514421 80.08001625 -4.6796875 70.765625 C-4.18082031 69.56292969 -4.18082031 69.56292969 -3.671875 68.3359375 C-3.3109375 67.61277344 -2.95 66.88960938 -2.578125 66.14453125 C-1.23572275 61.98424153 -1.20247746 57.87058125 -1.046875 53.5234375 C-1.00820312 52.63978516 -0.96953125 51.75613281 -0.9296875 50.84570312 C-0.83586716 48.67610778 -0.75280174 46.50605203 -0.671875 44.3359375 C-1.39890625 44.65949219 -2.1259375 44.98304688 -2.875 45.31640625 C-9.25705085 47.64282423 -16.23116798 46.82056495 -22.50390625 44.43359375 C-28.91101365 41.18963487 -33.47032936 36.51751858 -36.05078125 29.796875 C-37.86845192 22.59478366 -37.41057616 15.81635284 -33.671875 9.3359375 C-25.75843053 -2.73010654 -12.90489605 -5.72198221 0 0 Z " fill="#FAFBFF" transform="translate(181.671875,98.6640625)"/>
<path d="M0 0 C6.27 -0.0825 12.54 -0.165 19 -0.25 C20.96324219 -0.28641602 22.92648438 -0.32283203 24.94921875 -0.36035156 C26.52863476 -0.3720486 28.10806295 -0.38223801 29.6875 -0.390625 C30.88922852 -0.4213208 30.88922852 -0.4213208 32.11523438 -0.45263672 C38.92932068 -0.45680181 43.8819011 1.57179406 49.2421875 5.74609375 C49.78101563 6.30425781 50.31984375 6.86242187 50.875 7.4375 C51.70644531 8.27087891 51.70644531 8.27087891 52.5546875 9.12109375 C57.25584461 15.23259799 56.77505961 22.65733006 56 30 C53.55407844 37.87245451 47.8989906 42.39603202 40.83203125 46.15234375 C36.7657294 47.36942996 32.90329896 47.21084292 28.6875 47.125 C25.820625 47.08375 22.95375 47.0425 20 47 C20 55.58 20 64.16 20 73 C13.4 73 6.8 73 0 73 C0 48.91 0 24.82 0 0 Z " fill="#FAFCFF" transform="translate(90,78)"/>
<path d="M0 0 C15.84 0 31.68 0 48 0 C45.25802434 6.85493914 41.09015882 10.9819371 34.9375 15 C28.33915508 17.29045996 19.75704454 17.46944579 13.2734375 14.93359375 C8.05457259 11.64266003 3.5376929 7.05059694 0 2 C0 1.34 0 0.68 0 0 Z " fill="#F1F6FF" transform="translate(118,163)"/>
<path d="M0 0 C3.26726472 3.26726472 4.90237505 5.70646935 5.25 10.3125 C4.9247818 15.10946848 3.53495381 17.41022641 0.25 20.8125 C-3.06779179 22.56355678 -5.30597275 22.51845997 -9 22 C-12.15954305 19.45862841 -13.71540886 17.85377341 -15 14 C-15.67195988 7.16840786 -15.67195988 7.16840786 -13.953125 4.1796875 C-9.72972993 -0.96291708 -6.38102765 -1.88271905 0 0 Z " fill="#0866FF" transform="translate(174,110)"/>
<path d="M0 0 C1.8975 -0.061875 3.795 -0.12375 5.75 -0.1875 C7.35101563 -0.23970703 7.35101563 -0.23970703 8.984375 -0.29296875 C12.35420736 0.03441134 13.68639289 0.55418677 16 3 C16.8658678 9.81870893 16.8658678 9.81870893 14.359375 13.23828125 C10.04270731 16.46148842 5.20286044 15.22621132 0 15 C0 10.05 0 5.1 0 0 Z " fill="#0262FF" transform="translate(110,94)"/>
</svg>
